<mxfile host="app.diagrams.net" modified="2024-04-03T12:30:22.461Z" agent="Mozilla/5.0 (Windows NT 10.0; Win64; x64) AppleWebKit/537.36 (KHTML, like Gecko) Chrome/123.0.0.0 Safari/537.36" etag="oAaRRMlvIJ-_zHCE7MJg" version="24.2.1" type="github">
  <diagram id="C5RBs43oDa-KdzZeNtuy" name="Page-1">
    <mxGraphModel dx="1154" dy="597" grid="1" gridSize="10" guides="1" tooltips="1" connect="1" arrows="1" fold="1" page="1" pageScale="1" pageWidth="827" pageHeight="1169" math="0" shadow="0">
      <root>
        <mxCell id="WIyWlLk6GJQsqaUBKTNV-0" />
        <mxCell id="WIyWlLk6GJQsqaUBKTNV-1" parent="WIyWlLk6GJQsqaUBKTNV-0" />
        <mxCell id="WIyWlLk6GJQsqaUBKTNV-3" value="&lt;font style=&quot;font-size: 8px;&quot;&gt;메인(시작)&lt;/font&gt;" style="rounded=1;whiteSpace=wrap;html=1;fontSize=12;glass=0;strokeWidth=1;shadow=0;" parent="WIyWlLk6GJQsqaUBKTNV-1" vertex="1">
          <mxGeometry x="61" y="30" width="50" height="20" as="geometry" />
        </mxCell>
        <mxCell id="53Y-oGNE0GTHiMLFMjVp-3" value="&lt;font style=&quot;font-size: 8px;&quot;&gt;회원인가&lt;/font&gt;" style="rhombus;whiteSpace=wrap;html=1;" vertex="1" parent="WIyWlLk6GJQsqaUBKTNV-1">
          <mxGeometry x="46" y="110" width="80" height="40" as="geometry" />
        </mxCell>
        <mxCell id="53Y-oGNE0GTHiMLFMjVp-6" value="" style="rounded=0;html=1;jettySize=auto;orthogonalLoop=1;fontSize=11;endArrow=block;endFill=0;endSize=8;strokeWidth=1;shadow=0;labelBackgroundColor=none;edgeStyle=orthogonalEdgeStyle;" edge="1" parent="WIyWlLk6GJQsqaUBKTNV-1" source="53Y-oGNE0GTHiMLFMjVp-3" target="53Y-oGNE0GTHiMLFMjVp-27">
          <mxGeometry relative="1" as="geometry">
            <mxPoint x="130" y="209" as="sourcePoint" />
            <mxPoint x="150.0571428571427" y="130.02857142857135" as="targetPoint" />
            <Array as="points">
              <mxPoint x="130" y="130" />
              <mxPoint x="130" y="130" />
            </Array>
          </mxGeometry>
        </mxCell>
        <mxCell id="53Y-oGNE0GTHiMLFMjVp-7" value="N" style="text;strokeColor=none;align=center;fillColor=none;html=1;verticalAlign=middle;whiteSpace=wrap;rounded=0;" vertex="1" parent="WIyWlLk6GJQsqaUBKTNV-1">
          <mxGeometry x="118" y="104" width="20" height="20" as="geometry" />
        </mxCell>
        <mxCell id="53Y-oGNE0GTHiMLFMjVp-11" value="Y" style="text;strokeColor=none;align=center;fillColor=none;html=1;verticalAlign=middle;whiteSpace=wrap;rounded=0;" vertex="1" parent="WIyWlLk6GJQsqaUBKTNV-1">
          <mxGeometry x="91" y="150" width="20" height="20" as="geometry" />
        </mxCell>
        <mxCell id="53Y-oGNE0GTHiMLFMjVp-14" value="" style="rounded=0;html=1;jettySize=auto;orthogonalLoop=1;fontSize=11;endArrow=block;endFill=0;endSize=8;strokeWidth=1;shadow=0;labelBackgroundColor=none;edgeStyle=orthogonalEdgeStyle;exitX=0.5;exitY=1;exitDx=0;exitDy=0;entryX=0.5;entryY=0;entryDx=0;entryDy=0;" edge="1" parent="WIyWlLk6GJQsqaUBKTNV-1" source="WIyWlLk6GJQsqaUBKTNV-3" target="53Y-oGNE0GTHiMLFMjVp-18">
          <mxGeometry relative="1" as="geometry">
            <mxPoint x="90" y="70" as="sourcePoint" />
            <mxPoint x="90" y="100" as="targetPoint" />
          </mxGeometry>
        </mxCell>
        <mxCell id="53Y-oGNE0GTHiMLFMjVp-18" value="&lt;span style=&quot;font-size: 8px;&quot;&gt;회원 / 비회원 선택 질문&lt;/span&gt;" style="rounded=0;whiteSpace=wrap;html=1;" vertex="1" parent="WIyWlLk6GJQsqaUBKTNV-1">
          <mxGeometry x="34" y="70" width="104" height="20" as="geometry" />
        </mxCell>
        <mxCell id="53Y-oGNE0GTHiMLFMjVp-20" value="" style="rounded=0;html=1;jettySize=auto;orthogonalLoop=1;fontSize=11;endArrow=block;endFill=0;endSize=8;strokeWidth=1;shadow=0;labelBackgroundColor=none;edgeStyle=orthogonalEdgeStyle;exitX=0.5;exitY=1;exitDx=0;exitDy=0;" edge="1" parent="WIyWlLk6GJQsqaUBKTNV-1" source="53Y-oGNE0GTHiMLFMjVp-18" target="53Y-oGNE0GTHiMLFMjVp-3">
          <mxGeometry relative="1" as="geometry">
            <mxPoint x="96" y="60" as="sourcePoint" />
            <mxPoint x="96" y="80" as="targetPoint" />
            <Array as="points">
              <mxPoint x="90" y="90" />
              <mxPoint x="90" y="90" />
            </Array>
          </mxGeometry>
        </mxCell>
        <mxCell id="53Y-oGNE0GTHiMLFMjVp-23" value="&lt;font style=&quot;font-size: 8px;&quot;&gt;로그인&lt;/font&gt;" style="whiteSpace=wrap;html=1;" vertex="1" parent="WIyWlLk6GJQsqaUBKTNV-1">
          <mxGeometry x="48" y="180" width="76" height="20" as="geometry" />
        </mxCell>
        <mxCell id="53Y-oGNE0GTHiMLFMjVp-26" value="" style="rounded=0;html=1;jettySize=auto;orthogonalLoop=1;fontSize=11;endArrow=block;endFill=0;endSize=8;strokeWidth=1;shadow=0;labelBackgroundColor=none;edgeStyle=orthogonalEdgeStyle;exitX=0.5;exitY=1;exitDx=0;exitDy=0;entryX=0.5;entryY=0;entryDx=0;entryDy=0;" edge="1" parent="WIyWlLk6GJQsqaUBKTNV-1" source="53Y-oGNE0GTHiMLFMjVp-3" target="53Y-oGNE0GTHiMLFMjVp-23">
          <mxGeometry relative="1" as="geometry">
            <mxPoint x="136" y="140" as="sourcePoint" />
            <mxPoint x="160.0571428571427" y="140.02857142857135" as="targetPoint" />
            <Array as="points" />
          </mxGeometry>
        </mxCell>
        <mxCell id="53Y-oGNE0GTHiMLFMjVp-27" value="&lt;span style=&quot;font-size: 8px;&quot;&gt;조회 페이지 이동&lt;/span&gt;" style="whiteSpace=wrap;html=1;" vertex="1" parent="WIyWlLk6GJQsqaUBKTNV-1">
          <mxGeometry x="150" y="120" width="76" height="20" as="geometry" />
        </mxCell>
        <mxCell id="53Y-oGNE0GTHiMLFMjVp-30" value="&lt;span style=&quot;font-size: 8px;&quot;&gt;시도 시군 희망지역, 희망기간, 인원 선택&lt;/span&gt;" style="whiteSpace=wrap;html=1;" vertex="1" parent="WIyWlLk6GJQsqaUBKTNV-1">
          <mxGeometry x="250" y="115" width="80" height="30" as="geometry" />
        </mxCell>
        <mxCell id="53Y-oGNE0GTHiMLFMjVp-31" value="&lt;span style=&quot;font-size: 8px;&quot;&gt;가능한 휴양림&lt;/span&gt;&lt;div&gt;&lt;span style=&quot;font-size: 8px;&quot;&gt;&amp;nbsp;출력 / 선택&lt;/span&gt;&lt;/div&gt;" style="whiteSpace=wrap;html=1;" vertex="1" parent="WIyWlLk6GJQsqaUBKTNV-1">
          <mxGeometry x="350" y="115" width="80" height="30" as="geometry" />
        </mxCell>
        <mxCell id="53Y-oGNE0GTHiMLFMjVp-33" value="" style="rounded=0;html=1;jettySize=auto;orthogonalLoop=1;fontSize=11;endArrow=block;endFill=0;endSize=8;strokeWidth=1;shadow=0;labelBackgroundColor=none;edgeStyle=orthogonalEdgeStyle;entryX=0.5;entryY=1;entryDx=0;entryDy=0;" edge="1" parent="WIyWlLk6GJQsqaUBKTNV-1" target="53Y-oGNE0GTHiMLFMjVp-27">
          <mxGeometry relative="1" as="geometry">
            <mxPoint x="124" y="189.76" as="sourcePoint" />
            <mxPoint x="148" y="189.76" as="targetPoint" />
            <Array as="points">
              <mxPoint x="188" y="190" />
            </Array>
          </mxGeometry>
        </mxCell>
        <mxCell id="53Y-oGNE0GTHiMLFMjVp-34" value="" style="rounded=0;html=1;jettySize=auto;orthogonalLoop=1;fontSize=11;endArrow=block;endFill=0;endSize=8;strokeWidth=1;shadow=0;labelBackgroundColor=none;edgeStyle=orthogonalEdgeStyle;entryX=0;entryY=0.5;entryDx=0;entryDy=0;exitX=1;exitY=0.5;exitDx=0;exitDy=0;" edge="1" parent="WIyWlLk6GJQsqaUBKTNV-1" source="53Y-oGNE0GTHiMLFMjVp-27" target="53Y-oGNE0GTHiMLFMjVp-30">
          <mxGeometry relative="1" as="geometry">
            <mxPoint x="230" y="130" as="sourcePoint" />
            <mxPoint x="96" y="190" as="targetPoint" />
            <Array as="points" />
          </mxGeometry>
        </mxCell>
        <mxCell id="53Y-oGNE0GTHiMLFMjVp-35" value="" style="rounded=0;html=1;jettySize=auto;orthogonalLoop=1;fontSize=11;endArrow=block;endFill=0;endSize=8;strokeWidth=1;shadow=0;labelBackgroundColor=none;edgeStyle=orthogonalEdgeStyle;entryX=0;entryY=0.5;entryDx=0;entryDy=0;exitX=1;exitY=0.5;exitDx=0;exitDy=0;" edge="1" parent="WIyWlLk6GJQsqaUBKTNV-1" target="53Y-oGNE0GTHiMLFMjVp-31">
          <mxGeometry relative="1" as="geometry">
            <mxPoint x="330" y="129.9" as="sourcePoint" />
            <mxPoint x="354" y="129.9" as="targetPoint" />
            <Array as="points" />
          </mxGeometry>
        </mxCell>
        <mxCell id="53Y-oGNE0GTHiMLFMjVp-36" value="" style="rounded=0;html=1;jettySize=auto;orthogonalLoop=1;fontSize=11;endArrow=block;endFill=0;endSize=8;strokeWidth=1;shadow=0;labelBackgroundColor=none;edgeStyle=orthogonalEdgeStyle;entryX=0;entryY=0.5;entryDx=0;entryDy=0;exitX=1;exitY=0.5;exitDx=0;exitDy=0;" edge="1" parent="WIyWlLk6GJQsqaUBKTNV-1">
          <mxGeometry relative="1" as="geometry">
            <mxPoint x="430" y="129.87" as="sourcePoint" />
            <mxPoint x="450" y="129.97" as="targetPoint" />
            <Array as="points" />
          </mxGeometry>
        </mxCell>
        <mxCell id="53Y-oGNE0GTHiMLFMjVp-37" value="&lt;font style=&quot;font-size: 8px;&quot;&gt;로그인됐는가&lt;/font&gt;" style="rhombus;whiteSpace=wrap;html=1;" vertex="1" parent="WIyWlLk6GJQsqaUBKTNV-1">
          <mxGeometry x="450" y="110" width="80" height="40" as="geometry" />
        </mxCell>
        <mxCell id="53Y-oGNE0GTHiMLFMjVp-39" value="&lt;span style=&quot;font-size: 8px;&quot;&gt;방이 비어있는가&lt;/span&gt;" style="whiteSpace=wrap;html=1;" vertex="1" parent="WIyWlLk6GJQsqaUBKTNV-1">
          <mxGeometry x="550" y="115" width="80" height="30" as="geometry" />
        </mxCell>
        <mxCell id="53Y-oGNE0GTHiMLFMjVp-41" value="&lt;font style=&quot;font-size: 8px;&quot;&gt;완료&lt;/font&gt;" style="rounded=1;whiteSpace=wrap;html=1;fontSize=12;glass=0;strokeWidth=1;shadow=0;" vertex="1" parent="WIyWlLk6GJQsqaUBKTNV-1">
          <mxGeometry x="650" y="120" width="50" height="20" as="geometry" />
        </mxCell>
      </root>
    </mxGraphModel>
  </diagram>
</mxfile>
